<?xml version="1.0" encoding="UTF-8" standalone="no"?>
<svg
   xmlns:dc="http://purl.org/dc/elements/1.1/"
   xmlns:cc="http://creativecommons.org/ns#"
   xmlns:rdf="http://www.w3.org/1999/02/22-rdf-syntax-ns#"
   xmlns:svg="http://www.w3.org/2000/svg"
   xmlns="http://www.w3.org/2000/svg"
   xmlns:sodipodi="http://sodipodi.sourceforge.net/DTD/sodipodi-0.dtd"
   xmlns:inkscape="http://www.inkscape.org/namespaces/inkscape"
   width="64"
   height="64"
   id="svg14910"
   version="1.1"
   inkscape:version="0.91 r13725"
   sodipodi:docname="border.svg">
  <metadata
     id="metadata15430">
    <rdf:RDF>
      <cc:Work
         rdf:about="">
        <dc:format>image/svg+xml</dc:format>
        <dc:type
           rdf:resource="http://purl.org/dc/dcmitype/StillImage" />
        <dc:title></dc:title>
      </cc:Work>
    </rdf:RDF>
  </metadata>
  <defs
     id="defs15428" />
  <sodipodi:namedview
     pagecolor="#ffffff"
     bordercolor="#666666"
     borderopacity="1"
     objecttolerance="10"
     gridtolerance="10"
     guidetolerance="10"
     inkscape:pageopacity="0"
     inkscape:pageshadow="2"
     inkscape:window-width="1920"
     inkscape:window-height="1017"
     id="namedview15426"
     showgrid="false"
     inkscape:zoom="0.65186406"
     inkscape:cx="72.102137"
     inkscape:cy="100.25931"
     inkscape:window-x="-8"
     inkscape:window-y="-8"
     inkscape:window-maximized="1"
     inkscape:current-layer="svg14910" />
  <path
     style="fill:#ffffff;fill-opacity:0.50196081"
     d="M 0 0 L 0 8.3847656 L 2.4179688 7.375 L 3.1679688 9.171875 L 2.6621094 9.3828125 L 3.4765625 10.109375 L 2.4726562 11.234375 L 1.2890625 10.175781 L 1.6015625 9.8261719 L 0.50976562 10.28125 L 0 9.0605469 L 0 64 L 4.6777344 64 L 3.9589844 63.158203 L 4.84375 62.402344 L 6.2070312 64 L 7.0839844 64 L 7.3222656 62.751953 L 8.3574219 62.949219 L 9.2324219 62.359375 L 10.144531 63.712891 L 9.71875 64 L 15.408203 64 L 15.291016 63.853516 L 16.613281 62.787109 L 17.324219 63.667969 L 16.912109 64 L 17.751953 64 L 18.080078 61.246094 L 19.746094 61.443359 L 19.441406 64 L 35.386719 64 L 36.886719 61.792969 L 37.71875 62.357422 L 36.601562 64 L 40.394531 64 L 40.320312 63.716797 L 41.380859 63.441406 L 41.525391 64 L 55.669922 64 L 55.896484 63.25 L 57.230469 63.652344 L 57.125 64 L 62.414062 64 L 61.173828 63.068359 L 62.130859 61.794922 L 63.417969 62.759766 L 62.488281 64 L 64 64 L 64 58.253906 L 63.833984 58.25 L 63.871094 56.28125 L 63.552734 56.191406 L 64 54.619141 L 64 28.792969 L 63.371094 29.345703 L 62.257812 28.082031 L 63.615234 26.888672 L 64 27.326172 L 64 20.373047 L 63.779297 20.728516 L 62.685547 20.046875 L 63.634766 18.521484 L 64 18.75 L 64 4.2558594 L 62.628906 3.796875 L 63.058594 2.5097656 L 64 2.8242188 L 64 0 L 0 0 z M 18.050781 0.171875 L 20.253906 0.95507812 L 19.744141 2.3847656 L 17.541016 1.6015625 L 18.050781 0.171875 z M 14.583984 0.7734375 L 15.980469 1.3808594 L 15.142578 3.3066406 L 13.746094 2.6992188 L 14.583984 0.7734375 z M 59.925781 1.1777344 L 61.722656 1.6601562 L 61.039062 4.2070312 L 59.617188 3.8242188 L 59.96875 4.7089844 L 57.923828 5.5214844 L 58.109375 6.5722656 L 55.626953 7.0117188 L 55.353516 5.4628906 L 57.435547 5.09375 L 57.273438 4.6855469 L 59.509766 3.796875 L 59.242188 3.7246094 L 59.925781 1.1777344 z M 36.304688 1.2539062 L 37.697266 2.4960938 L 36.921875 3.3632812 L 37.542969 3.0078125 L 38.458984 4.6074219 L 37.333984 5.2519531 L 36.513672 3.8203125 L 36.167969 4.2070312 L 34.775391 2.9648438 L 36.304688 1.2539062 z M 4.1894531 1.5117188 L 4.4570312 2.8085938 L 5.4609375 2.53125 L 5.8378906 3.8964844 L 4.0253906 4.3984375 L 3.6484375 3.0332031 L 4.3515625 2.8378906 L 3.0722656 3.1015625 L 2.8046875 1.796875 L 4.1894531 1.5117188 z M 20.398438 1.6757812 L 23.152344 1.6855469 L 23.146484 3.4609375 L 20.392578 3.4511719 L 20.398438 1.6757812 z M 28.8125 1.9121094 L 29.857422 2.1542969 L 29.552734 3.4667969 L 28.507812 3.2246094 L 28.8125 1.9121094 z M 48.253906 2.3535156 L 48.908203 3.4433594 L 47.318359 4.3984375 L 46.664062 3.3085938 L 48.253906 2.3535156 z M 10.855469 2.4160156 L 10.929688 4.2675781 L 9.5292969 4.3222656 L 9.4570312 2.4707031 L 10.855469 2.4160156 z M 24.125 2.5214844 L 25.992188 2.5898438 L 25.941406 3.9765625 L 24.074219 3.90625 L 24.125 2.5214844 z M 43.318359 2.6621094 L 43.357422 3.8320312 L 41.941406 3.8789062 L 41.902344 2.7089844 L 43.318359 2.6621094 z M 54.802734 3.2832031 L 56.056641 4.5917969 L 54.960938 5.640625 L 53.708984 4.3300781 L 54.802734 3.2832031 z M 28.890625 3.5039062 L 30.318359 4.1542969 L 29.6875 5.5390625 L 30.824219 5.6972656 L 30.669922 6.8027344 L 29.205078 6.5996094 L 29.164062 6.6914062 L 27.736328 6.0429688 L 28.890625 3.5039062 z M 51.048828 3.640625 L 53.574219 4.0332031 L 53.371094 5.3378906 L 50.845703 4.9453125 L 51.048828 3.640625 z M 22.080078 3.7070312 L 23.039062 4.828125 L 22.003906 5.7128906 L 21.044922 4.5917969 L 22.080078 3.7070312 z M 14.884766 4.1699219 L 17.769531 4.6015625 L 17.603516 5.71875 L 14.716797 5.2871094 L 14.884766 4.1699219 z M 36.662109 4.640625 L 37.574219 5.8828125 L 36.488281 6.6777344 L 35.578125 5.4355469 L 36.662109 4.640625 z M 8.5742188 5.03125 L 9.3046875 7.9140625 L 8.2285156 8.1875 L 8.4902344 8.3769531 L 8.4570312 8.2089844 L 9.4804688 8.0078125 L 9.3671875 7.171875 L 10.998047 6.9511719 L 11.201172 8.4511719 L 10.253906 8.578125 L 10.480469 9.7363281 L 9.2539062 9.9765625 L 8.8828125 10.490234 L 7.0742188 9.1796875 L 7.9433594 7.9804688 L 8.171875 8.1464844 L 7.4570312 5.3144531 L 8.5742188 5.03125 z M 20.929688 5.4355469 L 21.082031 6.5585938 L 19.75 6.7402344 L 19.595703 5.6171875 L 20.929688 5.4355469 z M 47.101562 5.4394531 L 47.644531 6.6152344 L 45.005859 7.8359375 L 44.460938 6.6582031 L 47.101562 5.4394531 z M 61.521484 6.0410156 L 63.421875 6.9101562 L 62.751953 8.3789062 L 60.849609 7.5097656 L 61.521484 6.0410156 z M 43.189453 7.1152344 L 43.935547 8.0898438 L 41.642578 9.8476562 L 40.896484 8.875 L 43.189453 7.1152344 z M 48.148438 7.3417969 L 49.470703 7.3691406 L 49.433594 9.2832031 L 48.576172 9.265625 L 48.445312 11.390625 L 47.046875 11.304688 L 47.199219 8.8066406 L 48.117188 8.8652344 L 48.148438 7.3417969 z M 36.234375 7.5292969 L 37.976562 7.65625 L 37.896484 8.75 L 36.154297 8.6230469 L 36.234375 7.5292969 z M 31.691406 7.71875 L 32.820312 7.8515625 L 32.625 9.4882812 L 31.498047 9.3554688 L 31.691406 7.71875 z M 59.992188 7.8085938 L 62.492188 9.1582031 L 61.806641 10.425781 L 61.259766 10.130859 L 61.798828 11.279297 L 60.777344 11.759766 L 60.181641 10.494141 L 61.119141 10.054688 L 59.306641 9.0761719 L 59.992188 7.8085938 z M 14.085938 8.0390625 L 14.435547 9.8242188 L 12.533203 10.199219 L 12.181641 8.4140625 L 14.085938 8.0390625 z M 52.740234 8.6523438 L 54.613281 9.328125 L 53.791016 11.601562 L 52.621094 11.179688 L 52.611328 11.201172 L 52.261719 11.048828 L 51.917969 10.925781 L 51.925781 10.904297 L 50.359375 10.226562 L 50.960938 8.8359375 L 52.441406 9.4765625 L 52.740234 8.6523438 z M 20.677734 9.1601562 L 21.501953 10.482422 L 21.677734 10.166016 L 22.970703 10.882812 L 22.255859 12.169922 L 20.962891 11.453125 L 21 11.386719 L 20.384766 11.771484 L 19.292969 10.027344 L 20.677734 9.1601562 z M 42.873047 9.2480469 L 44.808594 9.3515625 L 44.691406 11.527344 L 42.755859 11.423828 L 42.873047 9.2480469 z M 28.117188 10.578125 L 30.150391 12.130859 L 28.988281 13.65625 L 26.953125 12.101562 L 28.117188 10.578125 z M 36.642578 10.751953 L 37.947266 11.234375 L 37.78125 11.683594 L 38.458984 11.011719 L 39.365234 11.923828 L 38.478516 12.802734 L 37.667969 11.988281 L 37.179688 13.310547 L 36.535156 13.072266 L 37.210938 14.15625 L 35.720703 15.083984 L 34.8125 13.628906 L 36.013672 12.878906 L 35.875 12.828125 L 36.642578 10.751953 z M 6.8261719 11.679688 L 8.7753906 12.658203 L 8.2949219 13.617188 L 6.34375 12.638672 L 6.8261719 11.679688 z M 40.400391 12.806641 L 42.738281 14.484375 L 42.101562 15.371094 L 43.849609 15.767578 L 43.53125 17.175781 L 41.546875 16.728516 L 41.824219 15.5 L 39.609375 13.908203 L 40.400391 12.806641 z M 14.027344 12.962891 L 14.853516 13.566406 L 13.794922 15.013672 L 13.691406 14.939453 L 13.695312 15.089844 L 11.132812 15.146484 L 11.089844 13.179688 L 13.652344 13.125 L 13.660156 13.466797 L 14.027344 12.962891 z M 52.101562 13.001953 L 54.337891 13.501953 L 55.212891 13.419922 L 55.376953 15.175781 L 52.712891 15.425781 L 52.644531 14.695312 L 51.765625 14.5 L 52.101562 13.001953 z M 47.867188 13.25 L 50.095703 14.498047 L 49.322266 15.884766 L 47.091797 14.638672 L 47.867188 13.25 z M 32.714844 13.701172 L 33.882812 14.158203 L 33.310547 15.623047 L 33.849609 15.769531 L 33.115234 18.472656 L 31.716797 18.09375 L 32.199219 16.320312 L 31.759766 16.148438 L 32.714844 13.701172 z M 28.005859 13.736328 L 28.507812 15.40625 L 27.441406 15.728516 L 26.9375 14.056641 L 28.005859 13.736328 z M 60.972656 14.041016 L 62.332031 14.779297 L 61.796875 15.765625 L 60.4375 15.027344 L 60.972656 14.041016 z M 3.8496094 14.382812 L 4.6894531 15.394531 L 3.6289062 16.273438 L 2.7890625 15.263672 L 3.8496094 14.382812 z M 22.484375 14.726562 L 24.960938 15.800781 L 24.525391 16.804688 L 24.59375 16.722656 L 25.732422 17.667969 L 24.660156 18.958984 L 23.521484 18.011719 L 24.525391 16.804688 L 22.048828 15.730469 L 22.484375 14.726562 z M 17.15625 15.326172 L 18.238281 15.517578 L 17.912109 17.378906 L 16.830078 17.1875 L 17.15625 15.326172 z M 57.673828 15.367188 L 60.435547 15.792969 L 60.261719 16.912109 L 57.501953 16.486328 L 57.673828 15.367188 z M 56.210938 15.734375 L 57.267578 17.005859 L 56.339844 17.779297 L 55.283203 16.507812 L 56.210938 15.734375 z M 36.498047 15.902344 L 37.984375 16.53125 L 37.4375 17.824219 L 35.949219 17.193359 L 36.498047 15.902344 z M 7.7597656 16.605469 L 9.2285156 17.728516 L 8.9941406 18.035156 L 9.7480469 17.53125 L 10.449219 18.578125 L 9.4238281 19.265625 L 8.7851562 18.310547 L 7.8886719 19.484375 L 6.4179688 18.361328 L 7.7597656 16.605469 z M 18.712891 17.035156 L 20.083984 18.158203 L 19.345703 19.056641 L 17.976562 17.933594 L 18.712891 17.035156 z M 51.867188 17.916016 L 52.644531 19.277344 L 51.074219 20.175781 L 50.294922 18.816406 L 51.867188 17.916016 z M 43.775391 18.324219 L 46.34375 19.347656 L 45.878906 20.515625 L 43.310547 19.494141 L 43.775391 18.324219 z M 15.693359 18.613281 L 16.794922 18.724609 L 16.619141 20.476562 L 15.515625 20.365234 L 15.693359 18.613281 z M 35.433594 18.703125 L 36.439453 18.912109 L 36.171875 20.197266 L 35.166016 19.986328 L 35.433594 18.703125 z M 25.533203 18.847656 L 27.037109 20.910156 L 25.617188 21.945312 L 24.113281 19.882812 L 25.533203 18.847656 z M 57.816406 18.919922 L 59.658203 19.027344 L 59.535156 21.126953 L 57.693359 21.019531 L 57.816406 18.919922 z M 48.185547 19.175781 L 48.359375 21.105469 L 46.533203 21.267578 L 46.361328 19.339844 L 48.185547 19.175781 z M 4.0273438 19.449219 L 4.0644531 20.458984 L 2.5429688 20.515625 L 2.5039062 19.505859 L 4.0273438 19.449219 z M 30.884766 20.042969 L 32.328125 21.443359 L 31.166016 22.642578 L 29.722656 21.242188 L 30.884766 20.042969 z M 41.359375 20.617188 L 41.462891 21.837891 L 40.1875 21.945312 L 40.185547 21.931641 L 40.042969 22.714844 L 38.916016 22.507812 L 39.181641 21.058594 L 40.126953 21.230469 L 40.083984 20.724609 L 41.359375 20.617188 z M 8.5859375 20.628906 L 9.3945312 22.173828 L 6.9570312 23.451172 L 6.1464844 21.90625 L 8.5859375 20.628906 z M 19.710938 20.947266 L 20.953125 22.839844 L 19.378906 23.873047 L 18.134766 21.982422 L 19.710938 20.947266 z M 45.855469 21.064453 L 46.150391 22.240234 L 45.164062 22.486328 L 44.869141 21.310547 L 45.855469 21.064453 z M 37.230469 21.441406 L 37.300781 22.857422 L 34.630859 22.992188 L 34.560547 21.576172 L 37.230469 21.441406 z M 2.078125 21.492188 L 2.6621094 23.498047 L 1.1484375 23.939453 L 0.56445312 21.933594 L 2.078125 21.492188 z M 50.09375 22.185547 L 50.695312 22.994141 L 49.220703 24.089844 L 48.619141 23.283203 L 50.09375 22.185547 z M 11.863281 22.287109 L 12.109375 23.765625 L 10.214844 24.082031 L 9.96875 22.601562 L 11.863281 22.287109 z M 61.511719 22.292969 L 61.890625 23.935547 L 59.957031 24.382812 L 59.576172 22.740234 L 61.511719 22.292969 z M 54.259766 22.369141 L 55.603516 22.591797 L 55.136719 25.421875 L 53.791016 25.199219 L 54.259766 22.369141 z M 22.082031 22.878906 L 23.34375 23.09375 L 23.162109 24.164062 L 21.900391 23.951172 L 22.082031 22.878906 z M 25.515625 23.642578 L 26.082031 24.830078 L 25.111328 25.292969 L 24.544922 24.105469 L 25.515625 23.642578 z M 17.78125 23.662109 L 18.421875 26.509766 L 16.646484 26.908203 L 16.005859 24.060547 L 17.78125 23.662109 z M 13.677734 23.683594 L 14.369141 24.480469 L 13.048828 25.625 L 12.357422 24.828125 L 13.677734 23.683594 z M 18.742188 24.074219 L 20.90625 24.496094 L 20.609375 26.019531 L 18.445312 25.599609 L 18.742188 24.074219 z M 3.3027344 24.605469 L 3.75 25.525391 L 2.7050781 26.033203 L 2.2597656 25.113281 L 3.3027344 24.605469 z M 11.474609 24.751953 L 12.742188 25.445312 L 12.09375 26.630859 L 10.826172 25.9375 L 11.474609 24.751953 z M 5.8046875 24.787109 L 8.171875 25.453125 L 7.6601562 27.269531 L 5.2929688 26.603516 L 5.8046875 24.787109 z M 58.089844 25.417969 L 58.267578 26.558594 L 57.773438 26.634766 L 58.015625 27.828125 L 55.783203 28.28125 L 55.507812 26.927734 L 56.591797 26.707031 L 56.431641 25.675781 L 58.089844 25.417969 z M 46.757812 25.710938 L 47.308594 27.419922 L 45.480469 28.007812 L 44.929688 26.298828 L 46.757812 25.710938 z M 32.976562 25.951172 L 33.128906 27.421875 L 31.917969 27.546875 L 31.765625 26.078125 L 32.976562 25.951172 z M 44.076172 26.261719 L 44.710938 27.283203 L 43.746094 27.884766 L 43.109375 26.863281 L 44.076172 26.261719 z M 22.037109 26.318359 L 22.169922 27.923828 L 20.849609 28.033203 L 20.716797 26.427734 L 22.037109 26.318359 z M 52.294922 26.322266 L 52.898438 27.136719 L 51.212891 28.388672 L 50.609375 27.576172 L 52.294922 26.322266 z M 26.070312 26.773438 L 26.261719 28.3125 L 25.003906 28.470703 L 24.8125 26.929688 L 26.070312 26.773438 z M 33.8125 27.794922 L 36.236328 28.068359 L 36.089844 29.373047 L 33.666016 29.101562 L 33.8125 27.794922 z M 38.208984 27.867188 L 38.664062 29.488281 L 36.863281 29.992188 L 36.408203 28.371094 L 38.208984 27.867188 z M 52.246094 27.990234 L 54.957031 28.980469 L 54.580078 30.009766 L 51.869141 29.019531 L 52.246094 27.990234 z M 57.095703 28.382812 L 58.388672 28.904297 L 57.970703 29.941406 L 56.677734 29.419922 L 57.095703 28.382812 z M 28.773438 28.494141 L 29.974609 31.115234 L 28.28125 31.890625 L 27.080078 29.267578 L 28.773438 28.494141 z M 16.027344 28.525391 L 17.654297 29.074219 L 16.923828 31.236328 L 15.296875 30.6875 L 16.027344 28.525391 z M 31.365234 28.537109 L 31.544922 30.650391 L 29.935547 30.787109 L 29.755859 28.673828 L 31.365234 28.537109 z M 41.609375 29.064453 L 42.59375 29.478516 L 41.966797 30.966797 L 40.982422 30.552734 L 41.609375 29.064453 z M 61.814453 29.367188 L 63.230469 30.441406 L 61.488281 32.738281 L 60.070312 31.664062 L 61.814453 29.367188 z M 23.765625 29.763672 L 26.287109 30.019531 L 26.103516 31.830078 L 23.582031 31.576172 L 23.765625 29.763672 z M 53.519531 29.794922 L 53.964844 30.830078 L 52.296875 31.548828 L 51.851562 30.511719 L 53.519531 29.794922 z M 40.113281 29.806641 L 41.533203 31.300781 L 40.207031 32.558594 L 38.789062 31.064453 L 40.113281 29.806641 z M 36.470703 30.267578 L 37.142578 31.103516 L 36.351562 31.738281 L 35.679688 30.902344 L 36.470703 30.267578 z M 11.751953 30.287109 L 12.15625 31.271484 L 10.669922 31.882812 L 10.265625 30.896484 L 11.751953 30.287109 z M 6.8242188 30.539062 L 7.8828125 30.630859 L 7.640625 33.423828 L 6.5820312 33.332031 L 6.8242188 30.539062 z M 20.867188 30.828125 L 22.318359 33.302734 L 21.427734 33.826172 L 21.972656 34.060547 L 21.197266 35.859375 L 20.246094 35.449219 L 21.019531 33.650391 L 21.210938 33.732422 L 19.853516 31.421875 L 20.867188 30.828125 z M 46.140625 30.900391 L 48.064453 31.603516 L 47.677734 32.662109 L 45.753906 31.957031 L 46.140625 30.900391 z M 3.4394531 31.720703 L 3.7402344 33.181641 L 3.6738281 33.195312 L 4.5644531 33.779297 L 3.9960938 34.648438 L 1.671875 33.123047 L 2.1542969 32.388672 L 2.0742188 32.003906 L 3.4394531 31.720703 z M 62.851562 31.740234 L 63.962891 32.324219 L 62.919922 34.310547 L 61.808594 33.728516 L 62.851562 31.740234 z M 44.482422 31.914062 L 44.730469 32.380859 L 45.162109 32.130859 L 45.664062 32.998047 L 44.644531 33.589844 L 44.419922 33.203125 L 43.185547 33.855469 L 42.667969 32.875 L 44.482422 31.914062 z M 37.066406 31.931641 L 37.898438 34.488281 L 36.064453 35.085938 L 35.230469 32.527344 L 37.066406 31.931641 z M 14.214844 32.179688 L 16.107422 32.886719 L 15.498047 34.519531 L 13.605469 33.8125 L 14.214844 32.179688 z M 9.8339844 32.546875 L 10.90625 33.402344 L 9.9042969 34.658203 L 8.8320312 33.802734 L 9.8339844 32.546875 z M 39.572266 32.712891 L 41.185547 34.498047 L 40.146484 35.4375 L 38.533203 33.652344 L 39.572266 32.712891 z M 54.009766 33.400391 L 54.779297 34.464844 L 53.205078 35.603516 L 52.435547 34.537109 L 54.009766 33.400391 z M 49.738281 34.796875 L 51.130859 34.802734 L 51.123047 36.517578 L 49.732422 36.513672 L 49.738281 34.796875 z M 59.232422 35.068359 L 60.064453 35.941406 L 59.224609 36.744141 L 58.390625 35.871094 L 59.232422 35.068359 z M 28.953125 35.1875 L 30.03125 36.765625 L 29.105469 37.398438 L 28.978516 37.212891 L 28.34375 37.707031 L 27.365234 36.451172 L 28.080078 35.892578 L 28.029297 35.818359 L 28.953125 35.1875 z M 20.296875 35.492188 L 22.449219 36.710938 L 21.554688 38.294922 L 19.402344 37.076172 L 20.296875 35.492188 z M 47.310547 35.648438 L 48.423828 35.921875 L 47.787109 38.523438 L 46.673828 38.25 L 47.310547 35.648438 z M 6.0859375 35.835938 L 7.1113281 36.296875 L 6.4589844 37.744141 L 5.4355469 37.283203 L 6.0859375 35.835938 z M 4.4199219 36.095703 L 5.0390625 38.314453 L 3.1269531 38.847656 L 2.5078125 36.626953 L 4.4199219 36.095703 z M 62.21875 36.496094 L 62.242188 38.726562 L 60.363281 38.746094 L 60.339844 36.515625 L 62.21875 36.496094 z M 14.685547 37.027344 L 17.253906 38.050781 L 16.556641 39.796875 L 13.990234 38.771484 L 14.685547 37.027344 z M 57.580078 37.144531 L 59.378906 37.337891 L 59.113281 39.804688 L 57.314453 39.611328 L 57.580078 37.144531 z M 12.076172 37.152344 L 12.814453 38.492188 L 11.910156 38.990234 L 11.171875 37.650391 L 12.076172 37.152344 z M 52.894531 37.201172 L 55.076172 38.9375 L 54.324219 39.882812 L 52.917969 38.763672 L 53.273438 40.154297 L 52.123047 40.449219 L 51.738281 38.951172 L 52.808594 38.677734 L 52.142578 38.146484 L 52.894531 37.201172 z M 18.353516 37.277344 L 19.896484 37.914062 L 19.158203 39.699219 L 17.617188 39.0625 L 18.353516 37.277344 z M 34.740234 37.642578 L 34.929688 39.582031 L 33.554688 39.714844 L 33.365234 37.777344 L 34.740234 37.642578 z M 27.271484 37.759766 L 27.919922 38.896484 L 26.707031 39.585938 L 26.060547 38.451172 L 27.271484 37.759766 z M 44.40625 37.808594 L 45.482422 38.097656 L 44.873047 40.367188 L 43.796875 40.078125 L 44.40625 37.808594 z M 30.121094 38.021484 L 31.023438 40.554688 L 29.333984 41.15625 L 29.259766 42.601562 L 27.585938 42.517578 L 27.660156 41.033203 L 29.244141 41.113281 L 28.365234 38.646484 L 30.121094 38.021484 z M 40.90625 38.318359 L 41.578125 39.708984 L 40.207031 40.371094 L 39.535156 38.980469 L 40.90625 38.318359 z M 21.646484 39.001953 L 22.849609 39.884766 L 21.527344 41.685547 L 20.324219 40.802734 L 21.646484 39.001953 z M 7.796875 39.367188 L 8.1953125 40.804688 L 6.9921875 41.140625 L 6.59375 39.701172 L 7.796875 39.367188 z M 37.984375 39.660156 L 38.242188 42.025391 L 36.507812 42.214844 L 36.25 39.849609 L 37.984375 39.660156 z M 55.974609 40.208984 L 57.464844 42.191406 L 56.166016 43.169922 L 54.675781 41.1875 L 55.974609 40.208984 z M 48.021484 40.234375 L 49.667969 41.171875 L 48.703125 42.863281 L 47.058594 41.925781 L 48.021484 40.234375 z M 12.410156 40.824219 L 13.996094 41.263672 L 13.609375 42.65625 L 12.023438 42.216797 L 12.410156 40.824219 z M 21.109375 41.542969 L 23.09375 42.357422 L 22.605469 43.544922 L 21.945312 43.275391 L 22.125 44.142578 L 19.734375 44.640625 L 19.423828 43.152344 L 20.898438 42.845703 L 20.621094 42.732422 L 21.109375 41.542969 z M 1.5175781 41.832031 L 3.1835938 41.875 L 3.1464844 43.318359 L 1.4804688 43.275391 L 1.5175781 41.832031 z M 9.296875 42.162109 L 9.6503906 43.472656 L 8.65625 43.740234 L 8.3027344 42.429688 L 9.296875 42.162109 z M 6.7890625 42.207031 L 7.0976562 43.183594 L 5.5449219 43.677734 L 5.234375 42.701172 L 6.7890625 42.207031 z M 31.892578 42.310547 L 33.109375 42.939453 L 32.439453 44.240234 L 31.220703 43.611328 L 31.892578 42.310547 z M 60.619141 42.386719 L 62.128906 43.537109 L 61.507812 44.351562 L 61.533203 45.042969 L 60.964844 45.064453 L 60.828125 45.244141 L 60.609375 45.076172 L 60.138672 45.09375 L 60.125 44.707031 L 59.318359 44.091797 L 60.619141 42.386719 z M 41.181641 42.568359 L 43.023438 43.955078 L 42.150391 45.113281 L 40.310547 43.726562 L 41.181641 42.568359 z M 34.982422 43.224609 L 36.466797 43.923828 L 35.857422 45.216797 L 34.373047 44.517578 L 34.982422 43.224609 z M 52.904297 43.398438 L 53.373047 45.296875 L 53.253906 45.326172 L 53.332031 45.443359 L 53.476562 45.339844 L 54.941406 47.396484 L 54.066406 48.021484 L 53.212891 46.826172 L 52.328125 47.408203 L 51.283203 45.824219 L 51.306641 45.808594 L 51.195312 45.835938 L 50.724609 43.9375 L 52.904297 43.398438 z M 10.806641 43.865234 L 11.132812 46.224609 L 9.796875 46.410156 L 9.4707031 44.050781 L 10.806641 43.865234 z M 62.677734 43.929688 L 63.888672 45.25 L 63.09375 45.976562 L 61.884766 44.65625 L 62.677734 43.929688 z M 58.613281 44.195312 L 58.998047 45.755859 L 57.640625 46.091797 L 57.255859 44.53125 L 58.613281 44.195312 z M 42.927734 44.539062 L 45.117188 46.068359 L 44.091797 47.537109 L 41.902344 46.005859 L 42.927734 44.539062 z M 16.949219 45.445312 L 17.917969 46.125 L 16.539062 48.091797 L 15.570312 47.414062 L 16.949219 45.445312 z M 20.369141 45.705078 L 21.791016 45.707031 L 21.787109 47.546875 L 21.134766 47.546875 L 20.955078 49.158203 L 19.431641 48.986328 L 19.732422 46.302734 L 20.369141 46.373047 L 20.369141 45.705078 z M 47.738281 45.814453 L 48.658203 46.800781 L 47.582031 47.802734 L 46.662109 46.816406 L 47.738281 45.814453 z M 6.8261719 45.851562 L 7.1171875 47.175781 L 6.8164062 47.242188 L 6.8535156 47.953125 L 4.0390625 48.103516 L 3.9570312 46.597656 L 5.2597656 46.527344 L 5.1894531 46.210938 L 6.8261719 45.851562 z M 30.462891 46.458984 L 30.771484 47.660156 L 29.154297 48.076172 L 28.845703 46.875 L 30.462891 46.458984 z M 41.523438 46.472656 L 41.548828 47.552734 L 38.707031 47.617188 L 38.681641 46.537109 L 41.523438 46.472656 z M 26.392578 46.652344 L 27.185547 48.222656 L 25.980469 48.832031 L 25.1875 47.263672 L 26.392578 46.652344 z M 35.230469 46.84375 L 36.638672 47.693359 L 36.060547 48.650391 L 34.652344 47.800781 L 35.230469 46.84375 z M 49.925781 48.699219 L 51.345703 49.787109 L 49.953125 51.605469 L 48.533203 50.517578 L 49.925781 48.699219 z M 55.736328 48.716797 L 56.34375 49.646484 L 55.160156 50.417969 L 54.552734 49.490234 L 55.736328 48.716797 z M 14.542969 48.742188 L 14.904297 50.412109 L 12.369141 50.958984 L 12.007812 49.291016 L 14.542969 48.742188 z M 3.5761719 48.789062 L 4.1894531 51.144531 L 2.2890625 51.638672 L 1.6757812 49.283203 L 3.5761719 48.789062 z M 10.126953 49.630859 L 11.359375 50.511719 L 9.8320312 52.642578 L 8.6015625 51.759766 L 10.126953 49.630859 z M 24.28125 49.705078 L 25.207031 51.609375 L 24.980469 50.769531 L 26.238281 50.429688 L 26.681641 52.070312 L 25.423828 52.410156 L 25.421875 52.404297 L 24.623047 52.792969 L 23.341797 50.164062 L 24.28125 49.705078 z M 36.292969 50.341797 L 36.580078 50.6875 L 37.271484 50.644531 L 37.332031 51.597656 L 37.496094 51.796875 L 37.351562 51.916016 L 37.386719 52.470703 L 36.623047 52.519531 L 35.984375 53.046875 L 34.78125 51.591797 L 36.292969 50.341797 z M 19.060547 50.724609 L 20.46875 51.294922 L 20.042969 52.34375 L 18.634766 51.773438 L 19.060547 50.724609 z M 57.421875 51.048828 L 58.583984 52.244141 L 57.253906 53.539062 L 56.091797 52.34375 L 57.421875 51.048828 z M 28.394531 51.050781 L 30.681641 52.087891 L 30.123047 53.320312 L 29.974609 53.251953 L 31.162109 54.671875 L 30.271484 55.417969 L 28.794922 53.654297 L 29.519531 53.046875 L 27.835938 52.283203 L 28.394531 51.050781 z M 7.7519531 51.208984 L 9.4277344 52.603516 L 9.3183594 52.734375 L 9.3710938 52.708984 L 10.076172 54.179688 L 10.035156 54.199219 L 10.779297 54.894531 L 9.1640625 56.621094 L 8.0078125 55.537109 L 8.6308594 54.873047 L 7.5859375 55.373047 L 6.8808594 53.902344 L 7.8554688 53.435547 L 6.6992188 52.472656 L 7.7519531 51.208984 z M 44.585938 51.248047 L 45.544922 52 L 45.353516 52.244141 L 45.414062 52.285156 L 44.568359 53.505859 L 43.410156 52.703125 L 44.255859 51.482422 L 44.349609 51.548828 L 44.585938 51.248047 z M 62.796875 51.611328 L 62.851562 53.189453 L 61.376953 53.240234 L 61.322266 51.662109 L 62.796875 51.611328 z M 17.097656 52.259766 L 17.244141 54.212891 L 15.289062 54.359375 L 15.142578 52.404297 L 17.097656 52.259766 z M 36.265625 53.078125 L 37.427734 53.941406 L 36.21875 55.570312 L 35.056641 54.705078 L 36.265625 53.078125 z M 54.328125 53.287109 L 54.986328 55.257812 L 53.306641 55.820312 L 52.648438 53.849609 L 54.328125 53.287109 z M 45.773438 53.423828 L 46.335938 54.394531 L 44.513672 55.449219 L 43.953125 54.478516 L 45.773438 53.423828 z M 42.820312 53.451172 L 43.134766 54.671875 L 41.777344 55.021484 L 41.462891 53.800781 L 42.820312 53.451172 z M 1.2324219 53.773438 L 2.7734375 54.160156 L 2.2578125 56.207031 L 0.71875 55.820312 L 1.2324219 53.773438 z M 50.408203 54.277344 L 51.150391 55.179688 L 49.818359 56.273438 L 49.837891 56.685547 L 50.412109 56.646484 L 50.542969 58.617188 L 49.126953 58.712891 L 49.044922 57.472656 L 47.443359 57.546875 L 47.386719 56.326172 L 49.578125 56.222656 L 48.958984 55.470703 L 50.408203 54.277344 z M 19.695312 54.507812 L 20.181641 56.507812 L 18.599609 56.892578 L 18.113281 54.892578 L 19.695312 54.507812 z M 58.240234 54.628906 L 59.146484 55.693359 L 57.78125 56.853516 L 56.875 55.789062 L 58.240234 54.628906 z M 20.898438 54.654297 L 22.095703 55.242188 L 21.494141 56.462891 L 20.298828 55.875 L 20.898438 54.654297 z M 37.845703 55.007812 L 39.660156 55.589844 L 39.300781 56.710938 L 37.486328 56.128906 L 37.845703 55.007812 z M 28.523438 55.304688 L 29.226562 56.869141 L 28.201172 57.330078 L 27.498047 55.763672 L 28.523438 55.304688 z M 32.246094 55.962891 L 33.253906 57.597656 L 32.568359 58.021484 L 34.044922 57.480469 L 35.046875 60.205078 L 33.435547 60.796875 L 34.583984 62.185547 L 33.787109 62.847656 L 32.068359 60.771484 L 32.867188 60.111328 L 33.201172 60.513672 L 32.337891 58.164062 L 32.072266 58.328125 L 31.064453 56.693359 L 32.246094 55.962891 z M 4.3105469 56.822266 L 4.546875 58.314453 L 2.7910156 58.591797 L 2.5546875 57.101562 L 4.3105469 56.822266 z M 20.712891 57.117188 L 22.054688 57.195312 L 21.988281 58.326172 L 20.646484 58.246094 L 20.712891 57.117188 z M 14.476562 57.693359 L 15.166016 58.560547 L 14.279297 59.265625 L 13.589844 58.396484 L 14.476562 57.693359 z M 13.015625 58.578125 L 13.396484 59.976562 L 12.001953 60.357422 L 11.621094 58.958984 L 13.015625 58.578125 z M 5.5605469 58.708984 L 6.2792969 59.462891 L 5.328125 60.371094 L 4.609375 59.617188 L 5.5605469 58.708984 z M 56.134766 59.011719 L 56.949219 60.113281 L 54.658203 61.806641 L 53.84375 60.705078 L 56.134766 59.011719 z M 59.259766 59.130859 L 61 59.326172 L 60.796875 61.125 L 60.492188 61.091797 L 61.095703 63.205078 L 59.888672 63.548828 L 59.142578 60.939453 L 59.058594 60.929688 L 59.259766 59.130859 z M 38.328125 59.291016 L 39.582031 59.494141 L 39.189453 61.898438 L 39.103516 61.884766 L 39.789062 62.691406 L 38.917969 63.429688 L 38.011719 62.363281 L 38.662109 61.8125 L 37.9375 61.693359 L 38.328125 59.291016 z M 41.767578 59.410156 L 42.185547 60.576172 L 40.714844 61.103516 L 40.296875 59.939453 L 41.767578 59.410156 z M 27.072266 59.496094 L 27.798828 61.613281 L 26.197266 62.164062 L 26.023438 61.662109 L 25.992188 61.669922 L 25.900391 61.300781 L 25.46875 60.048828 L 27.072266 59.496094 z M 18.787109 59.578125 L 19.083984 60.939453 L 17.595703 61.263672 L 17.298828 59.902344 L 18.787109 59.578125 z M 51.423828 60.019531 L 52.482422 60.501953 L 51.976562 61.617188 L 50.916016 61.134766 L 51.423828 60.019531 z M 45.785156 60.628906 L 47.417969 61.085938 L 46.923828 62.857422 L 45.289062 62.402344 L 45.785156 60.628906 z M 22.185547 61.447266 L 22.748047 63.214844 L 21.298828 63.675781 L 20.736328 61.908203 L 22.185547 61.447266 z "
     id="rect14912" />
  <rect
     style="fill:#ffffff;fill-opacity:0.50196078"
     id="rect16490"
     width="64"
     height="64"
     x="0"
     y="1.9073486e-006" />
</svg>
