<?xml version="1.0" encoding="UTF-8" standalone="no"?>
<!-- Created with Inkscape (http://www.inkscape.org/) -->

<svg
   xmlns:dc="http://purl.org/dc/elements/1.1/"
   xmlns:cc="http://creativecommons.org/ns#"
   xmlns:rdf="http://www.w3.org/1999/02/22-rdf-syntax-ns#"
   xmlns:svg="http://www.w3.org/2000/svg"
   xmlns="http://www.w3.org/2000/svg"
   version="1.1"
   width="100%"
   height="100%"
   viewBox="0 0 16 16"
   id="Layer_1"
   xml:space="preserve"><metadata
     id="metadata9"><rdf:RDF><cc:Work
         rdf:about=""><dc:format>image/svg+xml</dc:format><dc:type
           rdf:resource="http://purl.org/dc/dcmitype/StillImage" /><dc:title></dc:title></cc:Work></rdf:RDF></metadata><defs
     id="defs7" /><path
     d="M 16,9.440994 V 6.559006 L 14.2,6.26087 C 14.1,5.863354 13.9,5.465839 13.6,4.869565 L 14.7,3.378882 12.6,1.2919255 11.1,2.385093 C 10.6,2.086957 10.1,1.8881988 9.7,1.7888199 L 9.5,0 H 6.6 L 6.3,1.7888199 C 5.8,1.8881988 5.4,2.086957 4.9,2.385093 L 3.4,1.2919255 1.3,3.378882 2.3,4.869565 C 2,5.36646 1.9,5.763975 1.7,6.26087 L 0,6.459627 v 2.881988 l 1.8,0.298137 c 0.1,0.496894 0.3,0.894409 0.6,1.391304 l -1,1.490683 2.1,2.086957 1.5,-0.993789 c 0.4,0.198758 0.9,0.397515 1.4,0.596273 L 6.7,16 h 3 L 10,14.21118 c 0.5,-0.09938 0.9,-0.298137 1.4,-0.596273 l 1.5,1.093168 2.1,-2.086957 -1.1,-1.490683 C 14.2,10.63354 14.4,10.136646 14.5,9.73913 L 16,9.440994 z m -8,1.490683 c -1.7,0 -3,-1.291925 -3,-2.981366 0,-1.689441 1.3,-2.981367 3,-2.981367 1.7,0 3,1.291926 3,2.981367 0,1.689441 -1.3,2.981366 -3,2.981366 z"
     id="path3"
     style="fill:#808080;fill-opacity:1" /></svg>